<?xml version="1.0" encoding="utf-8"?>
<!-- Generator: Adobe Illustrator 25.0.1, SVG Export Plug-In . SVG Version: 6.00 Build 0)  -->
<svg version="1.1" id="Layer_1" xmlns="http://www.w3.org/2000/svg" xmlns:xlink="http://www.w3.org/1999/xlink" x="0px" y="0px"
	 viewBox="0 0 1700.8 566.9" style="enable-background:new 0 0 1700.8 566.9;" xml:space="preserve">
<style type="text/css">
	.st0{fill:#00B47D;}
	.st1{fill:#231F20;}
	.st2{fill:#682145;}
	.st3{fill:#00B57B;}
	.st4{fill:none;stroke:#231F20;stroke-width:0.5;}
</style>
<polygon class="st0" points="850.5,186.6 768.8,379.1 798,379.1 821.9,322.8 908.3,322.8 895.9,293.6 834.3,293.6 865.1,221 "/>
<g>
	<path class="st1" d="M214.9,302h8.2l6.6-17.9h29l6.6,17.9h8.5l-25.2-66.5h-8.4L214.9,302z M232.4,277l11.8-32l11.8,32H232.4z
		 M297.3,316.4c-8.8,0-15.2-2.5-15.2-7.8c0-3.9,3.8-5.7,8.5-6.5h13.7c5.1,0,8.9,2.3,8.9,6.3C313.2,313.1,308.8,316.4,297.3,316.4
		 M297.3,322.9c15.7,0,23.6-6.1,23.6-15.4c0-8.2-6.1-11.9-15.1-11.9h-14.6c-3.9,0-6.1-1.2-6.1-3.9c0-3.1,3.2-4.5,7.1-4.9
		c1.3,0.2,2.6,0.3,4,0.3c10.4,0,18.9-7.4,18.9-18c0-3.9-1.1-7.3-3-10.1h8.1v-6.7H303c-2.1-0.7-4.3-1-6.7-1c-11.4,0-18.9,7.5-19,17.8
		c-0.1,6.5,2.9,11.9,7.8,15c-4.6,1.9-7.1,5-7.1,8.6c0,3,1.6,5.9,4.8,7.6c-4.9,1.6-8,5.3-8,10C274.7,317.5,281.4,322.9,297.3,322.9
		 M296.3,280.8c-7.2,0-11.5-4.8-11.5-11.6c0-6.7,4.3-11.4,11.5-11.4c7.2,0,11.4,4.8,11.4,11.4C307.7,276,303.4,280.8,296.3,280.8
		 M328.4,302h6.9V273c2.6-7.4,5.8-13.8,13.3-13.8c1,0,2.2,0.1,3.3,0.3v-7.8c-0.7-0.1-1.5-0.2-2.6-0.2c-7.2,0-11.3,4.7-14,10.3v-9.3
		h-6.9V302z M377.1,303c14.9,0,23.1-11.2,23.1-25.8c0-14.6-8.2-25.8-23.1-25.8c-14.9,0-23.1,11.2-23.1,25.8
		C353.9,291.8,362.2,303,377.1,303 M377.1,296.4c-9.9,0-15.2-7.7-15.2-19.2c0-11.4,5.3-19.2,15.2-19.2s15.2,7.7,15.2,19.2
		C392.3,288.6,387,296.4,377.1,296.4 M408.1,302h7.9v-22.7h9.6c18.3,0,28.3-7.6,28.3-22c0-14-9.3-21.7-26-21.7h-19.9V302z
		 M416.1,272.5v-29.8h11.4c11.7,0,17.8,4.7,17.8,14.6c0,10.4-6.3,14.7-19.8,15L416.1,272.5z M471.3,296.9c-6.3,0-9.2-4-9.2-8.4
		c0-6.9,8-9.4,16.4-10.7l8-1.2v10.2C482.7,291.9,478.9,296.9,471.3,296.9 M470.4,303c8.1,0,13.3-3.9,16.4-8v7h7.4
		c-0.4-3.6-0.8-7.5-0.8-10.9v-23c0-10.3-6.3-16.7-17.5-16.7c-10.3,0-17,5.5-18.5,15.3h7.2c0.9-6.3,4.8-9.1,11.2-9.1
		c7.2,0,10.5,4.5,10.5,10.8v2.5l-9.7,1.4c-12.5,1.8-22.5,4.9-22.5,16.8C454.2,298.8,461.6,303,470.4,303 M503.7,302h6.9V273
		c2.6-7.4,5.8-13.8,13.3-13.8c1,0,2.2,0.1,3.3,0.3v-7.8c-0.7-0.1-1.5-0.2-2.6-0.2c-7.2,0-11.3,4.7-14,10.3v-9.3h-6.9V302z
		 M534.2,302h6.9v-49.6h-6.9V302z M569.3,303c11.1,0,17.2-6.5,17.2-15.3c0-7.5-4.5-11.8-11.8-13.8l-7.6-2.1
		c-4.9-1.3-7.5-3.3-7.5-7.7c0-2.8,2-6.4,8.7-6.4c5.7,0,8.6,3,9.7,7.7l7.3-0.1c-1.6-10.3-8.7-14-17.1-14c-10.1,0-16.1,5.2-16.1,13.4
		c0,7.4,5.4,11.7,11.8,13.4l7.4,2c4.9,1.3,7.6,4.1,7.6,8.9c0,4.6-3.9,7.2-9.7,7.2c-8.3,0-10.7-4.8-11.4-11h-7.3
		C551,294.9,557,303,569.3,303 M537.7,244.4c2.7,0,4.9-2.2,4.9-4.9c0-2.8-2.2-5-4.9-5c-2.8,0-5,2.2-5,5
		C532.7,242.2,534.9,244.4,537.7,244.4 M599.3,302h7.9v-59.4h23.1v-7.1h-54.3v7.1h23.2V302z M643.5,303c11.8,0,19.3-7,21.3-17.4
		h-8.1c-1.7,6.7-5.9,10.7-13.2,10.7c-9.3,0-14.6-6.7-15.3-16.7H665c0.1-1.9,0.1-2.9,0.1-5.1c0-10.6-6-23.2-22.1-23.2
		c-15.2,0-22.7,11.2-22.7,25.8C620.2,291.8,628.3,303,643.5,303 M628.3,273.5c0.9-9.3,5.7-15.6,14.7-15.6c9.2,0,13.6,6.3,14.4,15.6
		H628.3z M694.4,303c12.4,0,20.2-7.7,21.4-18.8h-8c-1,7.4-5.8,12.1-13.4,12.1c-10,0-14.8-7.7-14.8-19.2c0-11.4,4.8-19.2,14.8-19.2
		c7.2,0,12,4.1,13,10.7h8.1c-1.7-10.2-9.3-17.4-21.1-17.4c-15,0-22.7,11.2-22.7,25.8C671.6,291.8,679.4,303,694.4,303 M723.2,302
		h6.9v-32.8c3.1-6.3,7.9-11.2,13.7-11.2c5.9,0,10.1,3.7,10.1,11.7V302h6.9v-34.2c0-9.4-5.4-16.4-15.9-16.4c-6.6,0-11.4,2.8-14.9,8
		v-23.9h-6.9V302z"/>
</g>
<g>
	<path class="st2" d="M1433.7,303.4h-9l13.4,21.2v13.8h7.7v-13.9l13.4-21h-8.7l-8.5,14L1433.7,303.4z M1313.7,320.9v0.1
		c0,10,7.6,18,17.9,18c6.7,0,10.7-2.4,14.3-6.2l-4.9-4.9c-2.7,2.5-5.2,4.1-9.2,4.1c-6,0-10.1-5-10.1-11v-0.1c0-6,4.2-10.9,10.1-10.9
		c3.5,0,6.2,1.5,8.9,3.9l4.9-5.6c-3.2-3.2-7.2-5.4-13.8-5.4C1321.2,302.9,1313.7,311,1313.7,320.9 M1241.4,327.9l-4.5,5.4
		c4.2,3.7,9.5,5.6,14.8,5.6c7.5,0,12.8-3.9,12.8-10.8V328c0-6.1-4-8.6-11.1-10.5c-6-1.5-7.5-2.3-7.5-4.6v-0.1c0-1.7,1.6-3.1,4.5-3.1
		c2.9,0,6,1.3,9.1,3.5l4-5.8c-3.5-2.8-7.9-4.5-13-4.5c-7.1,0-12.2,4.2-12.2,10.5v0.1c0,6.9,4.6,8.9,11.6,10.7c5.8,1.5,7,2.5,7,4.4
		v0.1c0,2-1.9,3.3-5,3.3C1247.9,332.1,1244.6,330.5,1241.4,327.9 M1228.8,319.3h-15.4v7.3h15.4V319.3z M1181.6,327.9l-4.5,5.4
		c4.2,3.7,9.5,5.6,14.8,5.6c7.5,0,12.8-3.9,12.8-10.8V328c0-6.1-4-8.6-11.1-10.5c-6-1.5-7.5-2.3-7.5-4.6v-0.1c0-1.7,1.5-3.1,4.5-3.1
		c3,0,6,1.3,9.1,3.5l4-5.8c-3.5-2.8-7.9-4.5-13-4.5c-7.1,0-12.2,4.2-12.2,10.5v0.1c0,6.9,4.5,8.9,11.6,10.7c5.8,1.5,7,2.5,7,4.4v0.1
		c0,2-1.9,3.3-5,3.3C1188,332.1,1184.7,330.5,1181.6,327.9 M1055.8,310.4c3.8,0,6.2,1.8,6.2,5.3v0.1c0,3-2.2,5.3-6.1,5.3h-6.1v-10.7
		H1055.8z M1056.4,303.4h-14.3v35h7.7v-10.5h5.8c7.8,0,14.1-4.2,14.1-12.3v-0.1C1069.8,308.4,1064.8,303.4,1056.4,303.4
		 M1074.2,288.4h8.1v-45.9h-8.1v26.2c0,7.7-5.2,13.1-12.5,13.1c-7.2,0-11.5-4.7-11.5-12.6v-26.7h-8.2v28.3c0,11.3,7,18.5,17.8,18.5
		c6,0,10.8-2.3,14.4-7V288.4z M1095.9,323.8h-9.3l4.6-11.3L1095.9,323.8z M1109.9,338.4l-15-35.2h-7.1l-15,35.2h7.8l3.2-7.8h14.8
		l3.2,7.8H1109.9z M1129.4,288.4h8.2v-28.3c0-11.3-7-18.5-17.8-18.5c-6,0-10.9,2.3-14.4,6.9v-6h-8.2v45.9h8.2v-26.2
		c0-7.7,5.1-13.1,12.5-13.1c7.2,0,11.5,4.7,11.5,12.6V288.4z M1140.4,315.5c0,2.9-2.2,4.9-5.9,4.9h-7.8v-10h7.7c3.7,0,6,1.7,6,5
		V315.5z M1149.2,338.4l-8.5-12.5c4.4-1.6,7.5-5.2,7.5-10.8V315c0-7.2-4.9-11.5-13.2-11.5h-16v35h7.7v-11.2h6.1l7.5,11.2H1149.2z
		 M1152.4,288.4h8.2v-45.9h-8.2V288.4z M1159.2,338.4h7.7v-35h-7.7V338.4z M1198,288.7l20-46.2h-8.8l-14.5,35.5l-14.4-35.5h-9
		l19.9,46.2H1198z M1258,262.2h-26.8c1.1-8,6.6-13.6,13.5-13.6C1253.3,248.7,1257.2,255.5,1258,262.2 M1266.2,268
		c0.1-0.8,0.1-1.5,0.1-2.1c0-14.5-8.6-24.3-21.4-24.3c-12.6,0-22,10.3-22,23.9c0,13.6,9.9,23.9,22.9,23.9c7.7,0,13.5-2.6,18.8-8.6
		l0.5-0.6l-5.3-4.7l-0.5,0.5c-3.9,4.1-8.2,6-13.4,6c-7.8,0-13.6-5.4-14.7-13.5h35L1266.2,268z M1303,250.4h1.3v-8.6l-0.7,0
		c-7.1-0.3-13.4,3.4-17.4,10v-9.2h-8.2v45.9h8.2v-18.4C1286.2,258.1,1292.8,250.4,1303,250.4 M1294.3,323.8h-9.3l4.7-11.3
		L1294.3,323.8z M1300.3,338.4h8l-15-35.2h-7.1l-15,35.2h7.8l3.2-7.8h14.8L1300.3,338.4z M1346.5,275.2V275c0-9-8.9-11.7-14.8-13.4
		l-0.2-0.1c-5.5-1.7-10.7-3.3-10.7-7c0-3.4,3.1-5.7,7.8-5.7c4,0,8.6,1.5,12.7,4.2l0.7,0.4l3.8-6.3l-0.6-0.4c-4.8-3.1-10.9-5-16.4-5
		c-9.3,0-15.9,5.5-15.9,13.5v0.2c0,8.9,8.8,11.5,15.2,13.3c6,1.7,10.5,3.2,10.5,7.2c0,3.7-3.4,6.3-8.4,6.3c-4.9,0-10.1-1.9-14.9-5.5
		l-0.6-0.5l-4.2,6l0.6,0.5c5.1,4.1,12.3,6.7,18.8,6.7C1339.9,289.2,1346.5,283.6,1346.5,275.2 M1363.6,303.4h-7.7v35h25.1v-7h-17.4
		V303.4z M1359.6,288.4h8.2v-45.9h-8.2V288.4z M1394.2,249.9h14.1v-7.4h-14.1v-15.1l-8.1,4.5v10.6h-8.6v7.4h8.6v26
		c0,8.6,4.7,13.3,13.3,13.3c3.1,0,5.7-0.6,8.3-2l0.4-0.2v-7.4l-1.1,0.5c-2.2,1-3.9,1.5-6.1,1.5c-4.6,0-6.7-2.1-6.7-6.6V249.9z
		 M1410.6,323.8h-9.3l4.6-11.3L1410.6,323.8z M1424.6,338.4l-15-35.2h-7.1l-15,35.2h7.8l3.2-7.8h14.8l3.2,7.8H1424.6z M1437.5,248.7
		c8.6,0,12.5,6.9,13.3,13.6h-26.8C1425,254.2,1430.5,248.7,1437.5,248.7 M1437.6,241.5c-12.6,0-22,10.3-22,23.9
		c0,13.6,9.8,23.9,22.9,23.9c7.7,0,13.5-2.7,18.8-8.6l0.5-0.6l-5.3-4.7l-0.5,0.5c-3.9,4.1-8.2,6-13.4,6c-7.8,0-13.6-5.4-14.7-13.5
		h35l0.1-0.7c0.1-0.8,0.1-1.5,0.1-2.2C1459.1,251.3,1450.5,241.5,1437.6,241.5 M1444.7,222c0-4.2-3.4-7.6-7.6-7.6
		c-4.2,0-7.6,3.4-7.6,7.6c0,4.2,3.4,7.6,7.6,7.6C1441.3,229.6,1444.7,226.2,1444.7,222 M1475.8,199c0-6.8-5.5-12.3-12.3-12.3
		c-6.8,0-12.3,5.5-12.3,12.3c0,6.8,5.5,12.3,12.3,12.3C1470.3,211.2,1475.8,205.7,1475.8,199"/>
</g>
<polygon class="st3" points="849.7,187.9 768.6,379 797.6,379 821.3,323.1 907,323.1 894.7,294.1 833.6,294.1 864.2,222.1 "/>
<line class="st4" x1="974" y1="187.9" x2="974" y2="379"/>
</svg>
